<?xml version="1.0" encoding="UTF-8"?>
<svg version="1.1" xmlns="http://www.w3.org/2000/svg" width="2468" height="1264">
<path d="M0 0 C814.44 0 1628.88 0 2468 0 C2468 417.12 2468 834.24 2468 1264 C1653.56 1264 839.12 1264 0 1264 C0 846.88 0 429.76 0 0 Z " fill="#FEFEFE" transform="translate(0,0)"/>
<path d="M0 0 C10.80228586 8.42080209 20.1440688 19.56057842 22.72265625 33.38671875 C24.4678435 49.83080703 22.09306542 61.68786826 11.8203125 74.77734375 C3.30429347 84.57518571 -6.79438491 92.08787474 -20 94 C-29.45428824 94.45988054 -38.71359738 94.69307304 -47.3125 90.3125 C-49.80331118 88.78934566 -49.80331118 88.78934566 -51.96923828 89.26049805 C-54.17423268 90.06344684 -55.43562243 90.96169134 -57.1796875 92.51953125 C-58.06732788 93.30179077 -58.06732788 93.30179077 -58.97290039 94.09985352 C-59.60059326 94.66502686 -60.22828613 95.2302002 -60.875 95.8125 C-62.22487789 97.00564125 -63.57514708 98.19833993 -64.92578125 99.390625 C-65.60721191 99.99583984 -66.28864258 100.60105469 -66.99072266 101.22460938 C-69.98585987 103.87110243 -73.02234608 106.46799373 -76.0625 109.0625 C-77.22144616 110.05458005 -78.38030029 111.0467676 -79.5390625 112.0390625 C-81.26911288 113.51931429 -82.99930245 114.99940328 -84.72949219 116.47949219 C-91.33711172 122.13305047 -97.93230081 127.80008455 -104.5 133.5 C-112.2136508 140.19445358 -119.96834397 146.84022649 -127.72949219 153.47949219 C-134.33711172 159.13305047 -140.93230081 164.80008455 -147.5 170.5 C-155.2136508 177.19445358 -162.96834397 183.84022649 -170.72949219 190.47949219 C-177.97048388 196.67497126 -185.19350126 202.89009932 -192.38769531 209.13989258 C-195.45986539 211.80671796 -198.53870643 214.46477817 -201.63671875 217.1015625 C-214.66481154 228.17245299 -214.66481154 228.17245299 -227 240 C-226.23042969 240.16242188 -226.23042969 240.16242188 -225.4453125 240.328125 C-222.1597002 241.23088109 -219.0322421 242.48148642 -215.875 243.75 C-215.20484863 244.01804443 -214.53469727 244.28608887 -213.84423828 244.56225586 C-209.2776956 246.41532178 -204.90423624 248.50729716 -200.53125 250.78125 C-196.48067727 252.73152576 -192.26730676 254.23182161 -188.0546875 255.79296875 C-185.40628582 256.83945995 -182.99116878 258.00720733 -180.5 259.375 C-176.60638916 261.18274789 -175.94596437 261.12576042 -172 260 C-169.98389359 259.2064262 -167.98407711 258.37056445 -166 257.5 C-153.83548904 252.1625105 -140.49008703 252.72552751 -128 257 C-126.65209836 257.63669726 -125.31243011 258.29307043 -124 259 C-124 259.66 -124 260.32 -124 261 C-123.34 261.20625 -122.68 261.4125 -122 261.625 C-110.12144268 267.06933877 -103.61077446 277.45018763 -98.91015625 289.2734375 C-95.00887459 300.96053878 -95.83064625 315.17338939 -101.1015625 326.33203125 C-101.39804687 326.88246094 -101.69453125 327.43289063 -102 328 C-102.66 328 -103.32 328 -104 328 C-104.20625 328.66 -104.4125 329.32 -104.625 330 C-110.10885025 341.96476417 -120.58222063 348.43288825 -132.46875 353.1875 C-135 354 -135 354 -138 354 C-138.11214844 354.98742187 -138.22429688 355.97484375 -138.33984375 356.9921875 C-139.04411142 361.92827164 -140.67489537 366.50864474 -142.27148438 371.21484375 C-143.4791818 374.89779275 -144.46808419 378.11348275 -144 382 C-142.67267046 383.67145202 -141.33773782 385.33686649 -140 387 C-132.41168842 401.38381449 -130.85368163 415.1247424 -135.34375 430.90234375 C-135.66859375 431.94068359 -135.66859375 431.94068359 -136 433 C-134.39125 432.9071875 -134.39125 432.9071875 -132.75 432.8125 C-119.35305658 432.88350853 -108.61777908 438.95060716 -99.03125 447.87890625 C-88.64317781 458.72645086 -84.52941617 472.35831205 -84.7890625 487.078125 C-85.54976248 501.22150972 -91.85242738 512.31705983 -102 522 C-108.66783103 527.32714614 -116.15240835 531.75735749 -124.75 532.3125 C-127.05623202 532.60559638 -127.05623202 532.60559638 -129 534 C-131.46764046 538.82720907 -132.69700638 543.75598468 -134 549 C-134.31453125 549.89460937 -134.6290625 550.78921875 -134.953125 551.7109375 C-135.69545852 553.96162957 -136.13177477 555.63276036 -136 558 C-134.80259503 560.21162485 -133.38089563 561.94002378 -131.73046875 563.8359375 C-122.86744528 574.91971854 -121.95236003 588.98288293 -123.2421875 602.546875 C-125.54681957 615.43400126 -133.56506713 626.22213052 -143.9375 633.8125 C-156.57305517 642.15892176 -169.97267056 644.96615347 -185.05859375 642.5 C-189.8703748 641.29876104 -193.8280024 639.58702781 -198.125 637.125 C-201.56990871 635.34315067 -203.49567042 634.60014998 -207.25 635.75 C-208.85673504 636.44846042 -210.43893274 637.20469286 -212 638 C-212.89976562 638.44730469 -213.79953125 638.89460937 -214.7265625 639.35546875 C-216.34776297 640.17009181 -217.96852228 640.9857333 -219.58105469 641.81738281 C-226.1002641 645.14641287 -232.80084597 648.0548512 -239.5 651 C-247.52740812 654.53569536 -255.45139808 658.1380786 -263.2578125 662.13671875 C-268.2550987 664.66055825 -273.35207539 666.97308005 -278.4375 669.3125 C-280.04069092 670.05101196 -280.04069092 670.05101196 -281.67626953 670.80444336 C-287.97013869 673.69919544 -294.27027343 676.57988708 -300.5745697 679.45185852 C-304.14312727 681.0791478 -307.70918747 682.71186575 -311.27493286 684.3453064 C-313.04533095 685.15464457 -314.81687392 685.96148317 -316.58956909 686.76577759 C-319.09248795 687.90157541 -321.5914888 689.04561161 -324.08984375 690.19140625 C-324.84495239 690.53157776 -325.60006104 690.87174927 -326.37805176 691.222229 C-332.61905721 694.10162573 -334.85989494 696.36122636 -337.625 702.5625 C-344.76682783 717.14593608 -356.66702186 725.0920765 -371.625 730.25 C-379.54730935 732.04044191 -388.34020063 731.66339775 -396.1875 729.8125 C-399.81561289 729.37400291 -400.85044602 729.89308911 -403.890625 732.06640625 C-406.55454491 734.42693409 -409.0287986 736.96432397 -411.50634766 739.51757812 C-413.73846209 741.73290974 -416.16566249 743.66862996 -418.625 745.625 C-422.18184136 748.48881783 -425.62539052 751.42346328 -429 754.5 C-432.39598682 757.59555196 -435.86171531 760.55151207 -439.4375 763.4375 C-443.24087503 766.51336588 -446.90082652 769.68753166 -450.5 773 C-454.9698512 777.11378909 -459.59044893 780.97087297 -464.31640625 784.78515625 C-466.94708557 786.95632827 -469.47942424 789.20241357 -472 791.5 C-475.39598682 794.59555196 -478.86171531 797.55151207 -482.4375 800.4375 C-486.24087503 803.51336588 -489.90082652 806.68753166 -493.5 810 C-497.9698512 814.11378909 -502.59044893 817.97087297 -507.31640625 821.78515625 C-509.94708557 823.95632827 -512.47942424 826.20241357 -515 828.5 C-518.39598682 831.59555196 -521.86171531 834.55151207 -525.4375 837.4375 C-529.24087503 840.51336588 -532.90082652 843.68753166 -536.5 847 C-540.9698512 851.11378909 -545.59044893 854.97087297 -550.31640625 858.78515625 C-552.94708557 860.95632827 -555.47942424 863.20241357 -558 865.5 C-561.48178229 868.67179849 -565.03547166 871.71306491 -568.6875 874.6875 C-569.59628906 875.4403125 -570.50507812 876.193125 -571.44140625 876.96875 C-574 879 -574 879 -576.21484375 880.40625 C-578.3263653 881.82256711 -579.61913839 882.85394756 -581 885 C-581.60891285 888.49463027 -581.75456475 891.86132574 -581.84765625 895.40625 C-582.41687252 908.83391593 -589.32895622 920.93118239 -599 930 C-611.31095783 939.81371727 -624.44292735 943.03713818 -640 942 C-654.03472886 939.7086157 -665.45811677 932.50978255 -673.8125 921.0625 C-682.18648913 908.38521089 -684.86149596 895.10754515 -682.53515625 879.9765625 C-679.28463215 866.55132096 -670.93521228 854.43162505 -659.26367188 846.87597656 C-655.65070916 844.85164876 -651.90413253 843.3572756 -648 842 C-647.31808594 841.73832031 -646.63617187 841.47664062 -645.93359375 841.20703125 C-635.57054292 837.87205377 -622.60222059 839.16268206 -612.69140625 843.421875 C-609.23749769 844.32697443 -609.23749769 844.32697443 -607.25732422 843.13525391 C-605.36572472 841.64621326 -603.65719082 840.05974523 -601.9375 838.375 C-600.61398232 837.15288616 -599.28974751 835.93154854 -597.96484375 834.7109375 C-597.30210449 834.08670898 -596.63936523 833.46248047 -595.95654297 832.81933594 C-593.0508561 830.11741698 -590.0296791 827.56088747 -587 825 C-585.84291772 824.01138995 -584.68667347 823.02179825 -583.53125 822.03125 C-582.95375 821.53625 -582.37625 821.04125 -581.78125 820.53125 C-578.67878644 817.86421992 -575.58963065 815.18187426 -572.5 812.5 C-564.78641465 805.80547173 -557.03165538 799.15977295 -549.27050781 792.52050781 C-542.66288828 786.86694953 -536.06769919 781.19991545 -529.5 775.5 C-521.7863492 768.80554642 -514.03165603 762.15977351 -506.27050781 755.52050781 C-499.66288828 749.86694953 -493.06769919 744.19991545 -486.5 738.5 C-478.7863492 731.80554642 -471.03165603 725.15977351 -463.27050781 718.52050781 C-459.79567113 715.547396 -456.32351181 712.57120606 -452.85449219 709.59130859 C-451.55149783 708.47323102 -450.24735895 707.35648654 -448.94238281 706.24072266 C-446.85475183 704.45523615 -444.77082419 702.66550845 -442.6875 700.875 C-441.70825562 700.03980835 -441.70825562 700.03980835 -440.70922852 699.18774414 C-437.40196062 696.47055861 -437.40196062 696.47055861 -435 693 C-435.54255432 692.83038757 -436.08510864 692.66077515 -436.644104 692.48602295 C-442.35383249 690.64915275 -447.77758616 688.43340777 -453.234375 685.953125 C-454.95939247 685.18304931 -456.68466025 684.4135341 -458.41015625 683.64453125 C-461.0943859 682.44326325 -463.77654805 681.23795536 -466.45458984 680.02294922 C-469.0634623 678.8417612 -471.67935754 677.67750377 -474.296875 676.515625 C-475.09591248 676.14802063 -475.89494995 675.78041626 -476.71820068 675.40167236 C-482.19713827 672.9730813 -482.19713827 672.9730813 -488 674 C-489.43467942 674.6047645 -490.85229723 675.25159031 -492.25 675.9375 C-503.83456528 681.16004992 -517.22052881 681.91481648 -529.3828125 678.03515625 C-543.66101972 672.38780563 -553.7334648 663.32989372 -560.25 649.4375 C-565.38323695 636.96801191 -565.75746393 623.70614851 -561 611 C-560.57654297 609.79150391 -560.57654297 609.79150391 -560.14453125 608.55859375 C-554.94112065 596.13819221 -543.89838243 587.62990523 -531.99609375 582.171875 C-529 581 -529 581 -526.94873047 580.77954102 C-524.73437523 580.14534192 -524.73437523 580.14534192 -523.7956543 577.56323242 C-523.47508057 576.50467041 -523.15450684 575.4461084 -522.82421875 574.35546875 C-522.47166016 573.20369141 -522.11910156 572.05191406 -521.75585938 570.86523438 C-521.40330078 569.65158203 -521.05074219 568.43792969 -520.6875 567.1875 C-520.31560547 565.98544922 -519.94371094 564.78339844 -519.56054688 563.54492188 C-516.89826101 554.65576255 -517.16347503 551.3800922 -521.4375 543.25 C-528.49358543 529.32487508 -528.69777709 516.0161089 -524 501 C-525.8871875 501.0928125 -525.8871875 501.0928125 -527.8125 501.1875 C-540.89073739 501.12609982 -552.63382904 494.95669241 -562.00390625 486.12109375 C-572.33671996 475.14121539 -576.4639078 461.65775721 -576.21484375 446.85546875 C-575.91881762 441.5431453 -574.86010033 436.96792229 -573 432 C-572.57654297 430.79150391 -572.57654297 430.79150391 -572.14453125 429.55859375 C-567.04163877 417.37812627 -556.01447348 408.49397289 -544.2578125 403.16796875 C-540.04243285 401.65669955 -536.46667631 401.07701166 -532 401 C-531.85304688 400.14341797 -531.85304688 400.14341797 -531.703125 399.26953125 C-530.54480929 392.98866416 -528.82623193 387.03772414 -526.8046875 380.98046875 C-525.76513271 377.13007893 -525.18420473 374.46571216 -527.171875 370.89453125 C-527.69265625 370.20746094 -528.2134375 369.52039063 -528.75 368.8125 C-536.86218496 357.32503241 -538.76392293 344.28573239 -536.3984375 330.4921875 C-535.32214632 326.06743486 -534.16566319 322.0206008 -532 318 C-531.34 318 -530.68 318 -530 318 C-529.7525 317.29875 -529.505 316.5975 -529.25 315.875 C-524.58966317 305.15622529 -515.20009534 298.27966266 -504.53515625 293.9296875 C-492.24375935 289.42221067 -479.39656959 289.75753191 -467 294 C-465.65209836 294.63669726 -464.31243011 295.29307043 -463 296 C-463 296.66 -463 297.32 -463 298 C-457.40904097 298.36712856 -453.52220947 297.27617946 -448.6015625 294.80859375 C-447.90204971 294.47200241 -447.20253693 294.13541107 -446.48182678 293.78862 C-444.97594384 293.06234079 -443.47298889 292.32996491 -441.9727478 291.59210205 C-438.77365562 290.0188162 -435.56073815 288.47482244 -432.3480072 286.92962646 C-430.68917543 286.13176197 -429.03102815 285.33247289 -427.37355042 284.53179932 C-419.20563396 280.59334922 -410.9559903 276.84636806 -402.6875 273.125 C-392.58519242 268.56764476 -382.54378044 263.90765509 -372.56884766 259.07641602 C-363.41178945 254.6659668 -354.13450736 250.53056797 -344.84277344 246.41357422 C-337.49612308 243.15233729 -337.49612308 243.15233729 -330.27734375 239.62109375 C-327 238 -327 238 -325 238 C-324.86464844 237.45472656 -324.72929687 236.90945313 -324.58984375 236.34765625 C-322.69452077 229.7083512 -319.53255931 225.14762476 -315 220 C-314.47535156 219.38125 -313.95070313 218.7625 -313.41015625 218.125 C-304.72783255 208.61477746 -292.92748076 203.4852887 -280.19140625 202.79296875 C-270.53854702 202.68773441 -270.53854702 202.68773441 -266.97192383 203.41162109 C-263.00500471 204.19795888 -261.41033176 204.27072341 -257.98046875 202.0078125 C-257.02838953 201.06776588 -256.09805762 200.10532 -255.1875 199.125 C-254.15361992 198.09506164 -253.11710924 197.0677579 -252.078125 196.04296875 C-251.56443359 195.52653809 -251.05074219 195.01010742 -250.52148438 194.47802734 C-248.28464234 192.30507457 -245.87639473 190.37816338 -243.4375 188.4375 C-239.67161811 185.40642433 -236.05670244 182.27418423 -232.5 179 C-228.05272888 174.90648909 -223.45282537 171.07557501 -218.75 167.28125 C-215.91900422 164.93281032 -213.20616402 162.49090098 -210.5 160 C-206.0301488 155.88621091 -201.40955107 152.02912703 -196.68359375 148.21484375 C-194.05291443 146.04367173 -191.52057576 143.79758643 -189 141.5 C-185.60401318 138.40444804 -182.13828469 135.44848793 -178.5625 132.5625 C-174.75912497 129.48663412 -171.09917348 126.31246834 -167.5 123 C-163.0301488 118.88621091 -158.40955107 115.02912703 -153.68359375 111.21484375 C-151.05291443 109.04367173 -148.52057576 106.79758643 -146 104.5 C-142.60401318 101.40444804 -139.13828469 98.44848793 -135.5625 95.5625 C-131.75912497 92.48663412 -128.09917348 89.31246834 -124.5 86 C-120.0301488 81.88621091 -115.40955107 78.02912703 -110.68359375 74.21484375 C-108.05291443 72.04367173 -105.52057576 69.79758643 -103 67.5 C-99.53970762 64.34728916 -96.00789973 61.32735653 -92.375 58.375 C-91.46621094 57.61960937 -90.55742188 56.86421875 -89.62109375 56.0859375 C-87 54 -87 54 -84.59765625 52.4765625 C-81.61127112 50.43523596 -79.46098162 48.77995353 -78.52148438 45.15234375 C-77.91830617 41.49283802 -77.650607 37.85607582 -77.44921875 34.15625 C-77.14367063 29.88793988 -75.88324953 26.83590629 -74 23 C-73.64679687 22.24074219 -73.29359375 21.48148438 -72.9296875 20.69921875 C-65.67434442 6.86032361 -54.58335789 -1.95114092 -40 -7 C-26.00035061 -10.6303791 -11.87024448 -7.84104882 0 0 Z " fill="#050503" transform="translate(705,156)"/>
<path d="M0 0 C166.10810811 0 166.10810811 0 191 24 C202.77355615 36.72816882 208.47296201 52.79106375 209 70 C209.03996094 71.24652344 209.07992187 72.49304688 209.12109375 73.77734375 C209.57475347 94.80535869 204.33587377 113.11288246 189.6875 128.6875 C180.2441235 137.57050031 168.27525921 143.90824693 156 148 C156.82242188 148.23074219 157.64484375 148.46148438 158.4921875 148.69921875 C174.16932572 153.27926029 185.62684307 159.63381162 194.33203125 173.93359375 C194.88246094 174.94550781 195.43289062 175.95742188 196 177 C196.37358643 177.67998047 196.74717285 178.35996094 197.13208008 179.06054688 C200.94757721 186.29978797 203.53228902 193.86149924 206.0625 201.625 C206.39273666 202.62577072 206.39273666 202.62577072 206.72964478 203.64675903 C209.49800102 212.03908148 212.03270209 220.40783516 214.01171875 229.02734375 C215.2526743 234.25796455 216.9066062 239.36840169 218.5 244.5 C222.0248484 255.89666727 225.30948592 267.16640143 227 279 C206.87 279 186.74 279 166 279 C160.24416762 258.27900342 160.24416762 258.27900342 158.5 250.75 C158.29624756 249.88850342 158.09249512 249.02700684 157.88256836 248.1394043 C156.80810852 243.57161052 155.77594002 238.99682247 154.78515625 234.41015625 C148.77892894 204.09023825 148.77892894 204.09023825 131 180 C128.41578456 178.4045694 125.813541 177.13440176 123 176 C122.25804886 175.66030182 121.51609772 175.32060364 120.75166321 174.97061157 C117.68225518 173.88791986 115.26619475 173.72290614 112.01635742 173.68115234 C110.2204718 173.65106079 110.2204718 173.65106079 108.38830566 173.62036133 C106.51580139 173.60332153 106.51580139 173.60332153 104.60546875 173.5859375 C102.87327087 173.55947144 102.87327087 173.55947144 101.1060791 173.5324707 C96.80002667 173.46949319 92.49374269 173.42324473 88.1875 173.375 C78.555625 173.25125 68.92375 173.1275 59 173 C59 207.98 59 242.96 59 279 C39.53 279 20.06 279 0 279 C0 186.93 0 94.86 0 0 Z " fill="#010101" transform="translate(2213,473)"/>
<path d="M0 0 C20.79 0 41.58 0 63 0 C65.8875 8.105625 68.775 16.21125 71.75 24.5625 C78.76672125 44.23301682 85.84394314 63.8796817 93 83.5 C99.69225071 101.85134225 106.31848549 120.22471988 112.875 138.625 C119.7093316 157.80364392 126.57713874 176.96970106 133.48718262 196.12116623 C134.18337596 198.05106785 134.87922553 199.98109306 135.57495117 201.91116333 C139.999183 214.18456447 144.42984704 226.45547113 148.90821838 238.70924377 C150.52233945 243.12590085 152.13244266 247.54401858 153.74258423 251.96212769 C154.84861854 254.99027181 155.96164277 258.01578403 157.07495117 261.04125977 C157.73521107 262.85159845 158.39514389 264.66205648 159.0546875 266.47265625 C159.35662521 267.28621582 159.65856293 268.09977539 159.96965027 268.93798828 C161.26696273 272.52054218 162 275.1465072 162 279 C141.87 279 121.74 279 101 279 C98.23625 270.605625 95.4725 262.21125 92.625 253.5625 C91.75568848 250.92967041 90.88637695 248.29684082 89.99072266 245.58422852 C89.29816185 243.47423291 88.60592066 241.36413236 87.9140625 239.25390625 C87.55723389 238.17717651 87.20040527 237.10044678 86.83276367 235.99108887 C86.31540649 234.40910706 86.31540649 234.40910706 85.78759766 232.79516602 C85.49003571 231.89137711 85.19247375 230.9875882 84.88589478 230.05641174 C83.73549605 226.08743906 82.89642851 222.03392828 82 218 C48.67 218 15.34 218 -19 218 C-19.99 221.63 -20.98 225.26 -22 229 C-22.57743993 230.88080828 -23.17032316 232.75712359 -23.79345703 234.62329102 C-24.11033478 235.57700089 -24.42721252 236.53071075 -24.75369263 237.51332092 C-25.08505219 238.50021408 -25.41641174 239.48710724 -25.7578125 240.50390625 C-26.2805928 242.07155983 -26.2805928 242.07155983 -26.81393433 243.67088318 C-27.54363689 245.85699349 -28.2747831 248.04262242 -29.00732422 250.2277832 C-30.13208463 253.58363782 -31.25193329 256.94110229 -32.37109375 260.29882812 C-33.08304854 262.42978267 -33.79527812 264.56064543 -34.5078125 266.69140625 C-34.84322052 267.69651749 -35.17862854 268.70162872 -35.52420044 269.73719788 C-35.83477386 270.6625383 -36.14534729 271.58787872 -36.46533203 272.54125977 C-36.73830109 273.35635513 -37.01127014 274.1714505 -37.29251099 275.01124573 C-38 277 -38 277 -39 279 C-58.8 279 -78.6 279 -99 279 C-97.87504071 271.12528498 -97.87504071 271.12528498 -96.50732422 267.35571289 C-96.20029572 266.49908051 -95.89326721 265.64244812 -95.57693481 264.75985718 C-95.2395932 263.84008087 -94.90225159 262.92030457 -94.5546875 261.97265625 C-94.19744598 260.98165924 -93.84020447 259.99066223 -93.47213745 258.96963501 C-92.27927621 255.66498428 -91.07704226 252.36382112 -89.875 249.0625 C-89.02046204 246.69987757 -88.16663729 244.33699707 -87.31347656 241.97387695 C-85.72547943 237.57721957 -84.13559346 233.18125942 -82.54271698 228.78636837 C-79.49079314 220.3652849 -76.45629818 211.93802358 -73.4296875 203.5078125 C-73.1979974 202.86252279 -72.9663073 202.21723309 -72.72759628 201.55238914 C-71.78417939 198.92475318 -70.84083149 196.29709248 -69.89761925 193.66938305 C-67.4764972 186.9245733 -65.05230652 180.18086768 -62.62783432 173.43726158 C-61.39828821 170.01728723 -60.16887183 166.59726625 -58.93945312 163.17724609 C-58.69615202 162.50043258 -58.45285091 161.82361906 -58.20217705 161.12629604 C-55.06689707 152.4044644 -51.93243151 143.68234006 -48.79808044 134.96017456 C-48.31973306 133.62904852 -47.84138529 132.29792263 -47.36303711 130.96679688 C-47.12646361 130.30846926 -46.88989012 129.65014164 -46.64614773 128.9718647 C-44.98252303 124.34248346 -43.31858624 119.71321447 -41.65454102 115.08398438 C-40.70325985 112.43751003 -39.75200836 109.79102502 -38.80078125 107.14453125 C-38.56515032 106.48896366 -38.32951939 105.83339607 -38.08674812 105.1579628 C-34.83991347 96.12425672 -31.59629241 87.08940231 -28.35507202 78.05368042 C-26.54756589 73.01484705 -24.73915759 67.97633759 -22.93056297 62.93789482 C-21.47729039 58.88906487 -20.02516119 54.83982757 -18.57400036 50.79024029 C-17.88745183 48.87509184 -17.20024292 46.96018176 -16.51277161 45.04536438 C-15.6916511 42.75829314 -14.87142397 40.47090073 -14.05253601 38.18302917 C-9.46549739 25.41835493 -4.71164616 12.72144463 0 0 Z " fill="#010101" transform="translate(1218,473)"/>
<path d="M0 0 C2.72001901 0.02912907 5.43809174 0.02050036 8.15820312 0.00756836 C39.42365182 0.04467837 68.51919349 7.8326724 91.77539062 29.59155273 C105.67000131 43.94270063 110.08789062 60.88632523 110.08789062 80.46655273 C90.28789063 80.46655273 70.48789062 80.46655273 50.08789062 80.46655273 C49.09789062 76.17655273 48.10789062 71.88655273 47.08789062 67.46655273 C43.2912987 58.9242209 36.62949302 53.84411447 28.08789062 50.46655273 C12.55345356 44.50757555 -6.09839857 44.03891104 -21.59570312 50.60327148 C-28.31615986 54.10144026 -34.38207764 59.09177937 -36.91210938 66.46655273 C-38.17714689 74.75957645 -36.8624468 81.65371212 -31.91210938 88.46655273 C-20.66000502 100.87866785 2.02866433 106.19034027 17.58789062 110.65405273 C79.62543596 128.45993781 79.62543596 128.45993781 101.08789062 149.46655273 C101.91740234 150.24192383 101.91740234 150.24192383 102.76367188 151.03295898 C106.46435354 154.85333925 108.84234719 159.40874701 111.27539062 164.09155273 C111.60877441 164.71811768 111.9421582 165.34468262 112.28564453 165.99023438 C117.57269034 176.63217687 118.56629722 187.8193062 118.42407227 199.51489258 C118.40033048 201.59682727 118.40355979 203.67748392 118.41015625 205.75952148 C118.3756281 222.95109892 114.95011942 237.79431258 104.08789062 251.46655273 C103.57742188 252.14073242 103.06695313 252.81491211 102.54101562 253.50952148 C84.65717527 275.6872542 54.25171527 282.9330004 27.29003906 286.16625977 C18.22756102 287.01612619 9.17112581 286.78672807 0.08789062 286.46655273 C-1.20632813 286.44592773 -2.50054688 286.42530273 -3.83398438 286.40405273 C-21.87279059 285.75106427 -40.42188346 281.80921552 -56.91210938 274.46655273 C-57.70101562 274.12881836 -58.48992188 273.79108398 -59.30273438 273.44311523 C-77.47499884 265.07242648 -92.7338413 249.17846202 -99.65185547 230.46557617 C-100.4144781 228.27071105 -101.11116119 226.06456372 -101.78710938 223.84155273 C-102.00262451 223.1809082 -102.21813965 222.52026367 -102.44018555 221.83959961 C-104.86519241 213.19680681 -103.91210938 206.00980982 -103.91210938 196.46655273 C-84.11210938 196.46655273 -64.31210937 196.46655273 -43.91210938 196.46655273 C-43.25210938 201.08655273 -42.59210937 205.70655273 -41.91210938 210.46655273 C-37.70752659 220.92673429 -31.83918846 229.01375263 -21.21826172 233.58959961 C-11.36898764 237.33495135 -1.59158548 238.03478024 8.83789062 237.96655273 C9.54277618 237.96512268 10.24766174 237.96369263 10.97390747 237.96221924 C25.16156343 237.8909093 39.04905904 236.45522999 50.08789062 226.46655273 C56.83335377 219.23688555 57.62568424 210.79835424 57.45507812 201.19702148 C56.72442413 193.77388785 53.85665196 188.61199013 48.21289062 183.77905273 C31.88625275 172.42714407 11.45634749 167.86177136 -7.32617188 162.24389648 C-31.62897817 154.93644308 -56.15482872 146.96368569 -75.91210938 130.46655273 C-76.73582031 129.84522461 -77.55953125 129.22389648 -78.40820312 128.58374023 C-89.15480522 119.49690976 -96.11430713 104.23372278 -97.91210938 90.46655273 C-99.56847758 68.50834104 -97.5900527 48.59934417 -83.66210938 30.71655273 C-62.8745322 6.5627068 -30.53199502 -0.35495921 0 0 Z " fill="#010101" transform="translate(833.912109375,469.533447265625)"/>
<path d="M0 0 C1.28197266 0.9590625 1.28197266 0.9590625 2.58984375 1.9375 C20.91700847 16.04803885 32.3606746 36.60591755 36.60546875 59.2265625 C37.11773819 64.12609004 37 69.07376512 37 74 C17.2 74 -2.6 74 -23 74 C-24.98 66.08 -24.98 66.08 -27 58 C-33.52655257 44.23748698 -42.29002157 34.78252896 -56.75 29.125 C-58.82573318 28.39469482 -60.90833333 27.68333333 -63 27 C-63.69222656 26.76539063 -64.38445312 26.53078125 -65.09765625 26.2890625 C-82.23414427 20.90219383 -104.38027411 22.76077929 -120.4375 30.625 C-127.18937051 34.14920682 -132.79226478 38.40685477 -138 44 C-139.04027344 45.10408203 -139.04027344 45.10408203 -140.1015625 46.23046875 C-149.77306368 57.37696722 -154.90245557 70.75428841 -158 85 C-158.44666016 86.68609375 -158.44666016 86.68609375 -158.90234375 88.40625 C-164.8602972 113.66577614 -161.57942081 141.7967433 -153 166 C-152.69578125 166.89589844 -152.3915625 167.79179688 -152.078125 168.71484375 C-146.44564828 183.83219871 -134.50000876 197.40620531 -119.98046875 204.46875 C-109.73434045 208.90229482 -101.21535331 210.33151012 -90.07348633 210.26074219 C-88.07049937 210.25004273 -86.06743425 210.26169555 -84.06445312 210.2734375 C-77.11405361 210.25952975 -70.6728441 210.01917286 -64 208 C-62.34871094 207.50113281 -62.34871094 207.50113281 -60.6640625 206.9921875 C-46.46865918 201.77382587 -35.80661655 193.35068937 -29.1875 179.5625 C-25.78734433 171.45707839 -24.09084651 163.72677212 -23 155 C-2.87 155 17.26 155 38 155 C36.83560515 171.30152796 36.83560515 171.30152796 34.8125 178.4375 C34.59255371 179.23679932 34.37260742 180.03609863 34.14599609 180.85961914 C29.30076046 197.91641046 21.82469316 212.66884506 10 226 C9.37480469 226.70898438 8.74960938 227.41796875 8.10546875 228.1484375 C-4.71478918 241.80538595 -22.28151434 249.85925752 -40 255 C-40.63663574 255.18691406 -41.27327148 255.37382813 -41.92919922 255.56640625 C-80.40752075 266.63484976 -124.15215033 263.05734607 -159.3125 243.625 C-165.71343115 239.97430785 -171.46140132 235.87699133 -177 231 C-177.81726562 230.31421875 -178.63453125 229.6284375 -179.4765625 228.921875 C-206.86764293 205.34688937 -220.06321841 169.5692459 -222.80371094 134.25073242 C-223.88409561 116.35854099 -223.45869457 98.60353725 -220 81 C-219.85546387 80.24831543 -219.71092773 79.49663086 -219.56201172 78.72216797 C-213.05074429 45.84855979 -195.68242921 15.32417032 -167.5859375 -3.65625 C-149.93341892 -15.27852343 -131.85789363 -21.69935864 -111 -25 C-109.80375 -25.19078125 -108.6075 -25.3815625 -107.375 -25.578125 C-70.38575074 -29.88888497 -30.03161299 -22.95662014 0 0 Z " fill="#010101" transform="translate(1615,495)"/>
<path d="M0 0 C19.47 0 38.94 0 59 0 C59.33 42.9 59.66 85.8 60 130 C64.62 123.73 69.24 117.46 74 111 C76.6559445 107.49035905 79.3161335 103.9877829 82 100.5 C87.19526137 93.7168393 92.32303701 86.89055078 97.375 80 C102.34586796 73.22204454 107.40159454 66.52697178 112.54785156 59.88085938 C121.46623697 48.32954108 130.26569312 36.69450465 138.89233398 24.92382812 C142.97513517 19.36316709 147.12078972 13.85401069 151.3125 8.375 C151.87026123 7.64571289 152.42802246 6.91642578 153.00268555 6.16503906 C156.86122736 1.13877264 156.86122736 1.13877264 158 0 C160.02494231 -0.09409479 162.0531987 -0.11743122 164.08032227 -0.11352539 C166.03223228 -0.11341209 166.03223228 -0.11341209 168.02357483 -0.11329651 C169.45451902 -0.10818909 170.88546282 -0.10297308 172.31640625 -0.09765625 C173.7722926 -0.09579203 175.22817957 -0.09436815 176.68406677 -0.09336853 C180.52279379 -0.08954365 184.36148319 -0.07971364 188.20019531 -0.06866455 C192.11457816 -0.05844978 196.02896706 -0.05387077 199.94335938 -0.04882812 C207.62892343 -0.03809134 215.31445645 -0.02101529 223 0 C222.06541105 1.42035518 221.12830964 2.83905732 220.19018555 4.25708008 C219.40782784 5.44241081 219.40782784 5.44241081 218.60966492 6.65168762 C216.20396071 10.16132799 213.53217702 13.41906516 210.8125 16.6875 C209.66444979 18.08388381 208.51733025 19.48103325 207.37109375 20.87890625 C206.80374512 21.57000488 206.23639648 22.26110352 205.65185547 22.97314453 C203.1891698 25.9949028 200.77703595 29.0549345 198.375 32.125 C197.70658081 32.97904419 197.70658081 32.97904419 197.0246582 33.8503418 C196.13033323 34.99401932 195.23636965 36.13797954 194.34277344 37.28222656 C192.06766082 40.19271608 189.78336957 43.09598707 187.5 46 C184.75945374 49.48651101 182.01990368 52.97378158 179.28515625 56.46484375 C175.08999658 61.81695098 170.8817142 67.15642325 166.61914062 72.45507812 C161.84763294 78.38671709 157.16472522 84.37344019 152.5625 90.4375 C148.26138287 96.10153845 143.87478386 101.6799625 139.375 107.1875 C138.84382568 107.84073242 138.31265137 108.49396484 137.76538086 109.16699219 C135.09959284 112.44255829 132.41501729 115.69999719 129.703125 118.9375 C128.67659479 120.18709883 127.65053223 121.43708201 126.625 122.6875 C126.14208496 123.25170654 125.65916992 123.81591309 125.16162109 124.3972168 C122.56207679 127.53132121 122.56207679 127.53132121 122.20874023 131.44091797 C123.04982605 134.16114675 124.02443399 135.73178788 125.80859375 137.93359375 C126.38528809 138.65716064 126.96198242 139.38072754 127.55615234 140.1262207 C128.48741943 141.27030396 128.48741943 141.27030396 129.4375 142.4375 C130.73264526 144.06337277 132.02560138 145.69099169 133.31640625 147.3203125 C133.95078613 148.11985352 134.58516602 148.91939453 135.23876953 149.74316406 C137.96057173 153.230874 140.48965705 156.83632748 143.02905273 160.45874023 C146.88161318 165.91155923 150.93755707 171.20248804 155 176.5 C159.82680572 182.79600298 164.57409552 189.12103948 169.1328125 195.61328125 C172.95192375 201.01315047 176.97650281 206.25149617 181 211.5 C185.84816864 217.82562047 190.62305756 224.17875473 195.21191406 230.69458008 C198.79632755 235.76411287 202.51606844 240.72739533 206.25 245.6875 C211.45751648 252.61025385 216.65554552 259.53945792 221.8125 266.5 C222.40514648 267.29494873 222.99779297 268.08989746 223.60839844 268.90893555 C224.15657227 269.65054932 224.70474609 270.39216309 225.26953125 271.15625 C225.75010986 271.80400391 226.23068848 272.45175781 226.72583008 273.11914062 C228.01066962 275.0157499 228.99511265 276.94467659 230 279 C221.30737381 279.3024435 212.61658079 279.53278695 203.9198246 279.67355824 C199.88035767 279.74115893 195.84451129 279.83265844 191.80712891 279.98071289 C187.90344722 280.12295319 184.00322328 280.19988034 180.0971489 280.23340416 C178.61441966 280.25725837 177.13186108 280.30385273 175.65062332 280.37449074 C164.38501812 280.88990359 164.38501812 280.88990359 160.40446663 277.73568916 C157.01082554 274.19784992 154.52332791 270.18155751 152 266 C150.89538661 264.46327906 149.77852881 262.93506975 148.63671875 261.42578125 C147.65158225 260.05616944 146.66851098 258.68506981 145.6875 257.3125 C144.57554303 255.76560905 143.4635632 254.21873452 142.3515625 252.671875 C141.51866699 251.51075195 141.51866699 251.51075195 140.66894531 250.32617188 C137.97232368 246.56762727 135.26876936 242.8141024 132.5625 239.0625 C132.02906982 238.32298096 131.49563965 237.58346191 130.94604492 236.8215332 C126.41561582 230.55223378 121.82756131 224.32639627 117.23071289 218.10571289 C112.74183637 212.02455095 108.31009187 205.90404491 103.89453125 199.76953125 C99.96607806 194.31915915 95.99276223 188.90339862 92 183.5 C87.43005335 177.31192563 82.88198434 171.10911338 78.375 164.875 C77.90964844 164.23240234 77.44429687 163.58980469 76.96484375 162.92773438 C71.24409697 154.99775612 65.63951467 146.98931245 60 139 C59.67 185.2 59.34 231.4 59 279 C39.53 279 20.06 279 0 279 C0 186.93 0 94.86 0 0 Z " fill="#010101" transform="translate(1705,473)"/>
<path d="M0 0 C61.71 0 123.42 0 187 0 C187 16.17 187 32.34 187 49 C144.76 49 102.52 49 59 49 C59 70.12 59 91.24 59 113 C97.28 113 135.56 113 175 113 C175 128.51 175 144.02 175 160 C136.72 160 98.44 160 59 160 C59 183.1 59 206.2 59 230 C101.57 230 144.14 230 188 230 C188 246.17 188 262.34 188 279 C125.96 279 63.92 279 0 279 C0 186.93 0 94.86 0 0 Z " fill="#010101" transform="translate(1970,473)"/>
<path d="M0 0 C7.15704782 4.06487551 12.08734285 7.48229167 14.73046875 15.55078125 C15.44898357 17.11820803 16.1786291 18.68056909 16.91796875 20.23828125 C18.45971159 23.48922214 18.73046875 24.76843708 18.73046875 28.55078125 C19.60836563 28.83320679 20.48626251 29.11563232 21.39076233 29.40661621 C24.39430602 30.43561375 27.26025846 31.58221867 30.16577148 32.85742188 C31.20382431 33.31129272 32.24187714 33.76516357 33.31138611 34.23278809 C34.41776932 34.71928833 35.52415253 35.20578857 36.6640625 35.70703125 C39.02795337 36.73967815 41.39188698 37.77222723 43.75585938 38.8046875 C47.46749183 40.42868758 51.17807486 42.05507136 54.88793945 43.68310547 C58.47796801 45.25819703 62.071051 46.82625602 65.6640625 48.39453125 C66.76842148 48.88103149 67.87278046 49.36753174 69.01060486 49.86877441 C76.69137119 53.24289616 76.69137119 53.24289616 84.73046875 55.55078125 C86.86228252 54.66699307 86.86228252 54.66699307 88.48046875 52.92578125 C95.3360009 47.16660588 103.13623988 44.83422272 112.05078125 45.23828125 C123.25505731 46.54490236 134.49640866 52.15007919 142.19921875 60.45703125 C149.46751023 70.39530736 152.13686224 80.26084259 150.3046875 92.36328125 C147.85470032 102.94482096 141.50252145 111.25619114 132.73046875 117.55078125 C129.73046875 118.98828125 129.73046875 118.98828125 127.73046875 119.55078125 C127.73046875 118.89078125 127.73046875 118.23078125 127.73046875 117.55078125 C125.97937853 118.17272019 124.22963844 118.79846123 122.48046875 119.42578125 C121.5059375 119.77382813 120.53140625 120.121875 119.52734375 120.48046875 C118.604375 120.83367187 117.68140625 121.186875 116.73046875 121.55078125 C115.72016602 121.89012695 115.72016602 121.89012695 114.68945312 122.23632812 C111.77956972 124.18882217 111.52351904 126.32223523 110.58984375 129.65234375 C110.24179687 130.8640625 109.89375 132.07578125 109.53515625 133.32421875 C109.18710937 134.59523438 108.8390625 135.86625 108.48046875 137.17578125 C108.11472568 138.46785766 107.74755436 139.75953069 107.37890625 141.05078125 C106.48194354 144.21375501 105.59984939 147.38013614 104.73046875 150.55078125 C102.17617301 149.96725679 100.14224433 149.28117839 97.73046875 148.17578125 C92.62282174 145.90695774 87.15600455 144.80693978 81.73046875 143.55078125 C83.10036498 136.70130012 85.00323865 130.07585003 87.0534668 123.40454102 C87.97724618 120.35368801 88.73046875 117.7576847 88.73046875 114.55078125 C87.12746085 112.92103917 87.12746085 112.92103917 85.04296875 111.36328125 C76.10295033 103.81323035 73.02578391 94.36951944 72.04296875 82.92578125 C71.93525171 81.13432453 71.83048932 79.34268416 71.73046875 77.55078125 C71.13097412 77.29385498 70.53147949 77.03692871 69.91381836 76.7722168 C56.0078125 70.8125 56.0078125 70.8125 53.23168945 69.62231445 C51.24504074 68.771226 49.25744961 67.92233742 47.26953125 67.07421875 C44.2499664 65.77440607 41.23730467 64.46068272 38.2265625 63.140625 C37.23849609 62.70814453 36.25042969 62.27566406 35.23242188 61.83007812 C33.18473925 60.93348286 31.13786631 60.03503618 29.09179688 59.13476562 C24.3571576 57.06587361 19.68436509 55.04965245 14.73046875 53.55078125 C14.31796875 54.13085938 13.90546875 54.7109375 13.48046875 55.30859375 C6.85929119 64.26491875 -0.23050121 70.0066298 -11.26953125 72.55078125 C-25.95904361 74.09248715 -36.05811955 68.61470742 -47.26953125 59.55078125 C-63.99464389 67.09495836 -80.68439637 74.70304339 -97.26953125 82.55078125 C-109.01765654 88.10960837 -120.81075279 93.55411189 -132.65881348 98.89654541 C-140.86585452 102.59914011 -149.037259 106.36668491 -157.16796875 110.234375 C-158.40521194 110.82239143 -158.40521194 110.82239143 -159.66744995 111.42228699 C-163.68523344 113.33356393 -167.69922788 115.25232309 -171.70849609 117.18139648 C-173.16106576 117.87497769 -174.6136992 118.56842535 -176.06640625 119.26171875 C-176.72321381 119.58075668 -177.38002136 119.89979462 -178.05673218 120.22850037 C-181.4401852 121.83703221 -184.55337102 123.01699263 -188.26953125 123.55078125 C-188.34429687 124.1334375 -188.4190625 124.71609375 -188.49609375 125.31640625 C-190.39880267 137.18035597 -195.6415176 146.96218635 -205.36157227 154.08349609 C-208.44838476 155.64102637 -210.95934311 155.87490187 -214.36758423 156.16893005 C-218.35881144 156.63398632 -221.85904153 157.34843908 -225.26953125 159.55078125 C-229.80202464 165.4849129 -231.13730367 173.38157089 -232.89453125 180.48828125 C-233.44536975 182.45299257 -234.00260764 184.41592158 -234.56640625 186.37695312 C-237.96134492 196.38162755 -237.96134492 196.38162755 -237.26953125 206.55078125 C-236.00218381 208.71698452 -236.00218381 208.71698452 -234.39453125 210.67578125 C-233.88148438 211.33835937 -233.3684375 212.0009375 -232.83984375 212.68359375 C-231.36327957 214.55134186 -231.36327957 214.55134186 -229.69921875 215.85546875 C-227.38322278 218.60175905 -226.89033389 221.02816971 -226.26953125 224.55078125 C-226.63339866 226.81907955 -227.20230882 228.98642375 -227.77416992 231.21069336 C-228.75697942 235.44344096 -229.3462421 239.28799314 -228.26953125 243.55078125 C-224.22568426 249.12401489 -217.80041595 252.48433487 -211.97167969 255.92773438 C-207.69816219 258.4946249 -203.6532954 261.36581475 -199.58203125 264.23828125 C-198.84621826 264.73191162 -198.11040527 265.22554199 -197.35229492 265.73413086 C-195.60391505 266.93087724 -193.92791336 268.23214451 -192.26953125 269.55078125 C-192.26953125 273.23308679 -193.40123892 274.94777105 -195.14453125 278.17578125 C-197.8039875 283.33161389 -199.31870973 287.84585213 -200.26953125 293.55078125 C-200.92953125 293.55078125 -201.58953125 293.55078125 -202.26953125 293.55078125 C-202.26953125 292.89078125 -202.26953125 292.23078125 -202.26953125 291.55078125 C-202.85782715 291.26952393 -203.44612305 290.9882666 -204.05224609 290.69848633 C-206.08706989 289.6452264 -207.8807874 288.51208119 -209.74609375 287.1875 C-210.40834961 286.71860352 -211.07060547 286.24970703 -211.75292969 285.76660156 C-212.81302246 285.01008301 -212.81302246 285.01008301 -213.89453125 284.23828125 C-215.00103027 283.45662598 -215.00103027 283.45662598 -216.12988281 282.65917969 C-220.1962154 279.77764801 -224.22342702 276.85168223 -228.21484375 273.8671875 C-229.01841309 273.27139893 -229.82198242 272.67561035 -230.64990234 272.06176758 C-232.20466541 270.90634763 -233.75218161 269.7410981 -235.29150391 268.56518555 C-236.00097168 268.03965088 -236.71043945 267.51411621 -237.44140625 266.97265625 C-238.06112305 266.5044043 -238.68083984 266.03615234 -239.31933594 265.55371094 C-241.79135625 264.28242157 -243.52308957 264.31803196 -246.26953125 264.55078125 C-248.60868829 265.35233605 -248.60868829 265.35233605 -250.83203125 266.48828125 C-258.60857018 270.24851411 -266.90660276 270.86096505 -275.35546875 268.796875 C-282.97852787 266.13402558 -288.75736079 262.49812306 -294.26953125 256.55078125 C-294.95015625 255.82890625 -295.63078125 255.10703125 -296.33203125 254.36328125 C-302.87618514 244.86370302 -304.51557361 234.1360131 -302.87890625 222.859375 C-300.26101708 212.40459966 -293.43579155 204.66702403 -284.56640625 198.890625 C-277.00289234 194.47857522 -269.87169182 194.39500772 -261.26953125 194.55078125 C-261.13417969 193.95136719 -260.99882812 193.35195313 -260.859375 192.734375 C-258.86636805 184.34465112 -256.36037683 176.14044583 -253.78295898 167.91381836 C-251.9975264 162.16184335 -250.4905372 156.44927269 -249.26953125 150.55078125 C-250.30078125 149.76703125 -251.33203125 148.98328125 -252.39453125 148.17578125 C-258.51310571 142.9259699 -262.9200718 135.512592 -264.26953125 127.55078125 C-264.80379502 119.99337738 -264.84914182 113.33177939 -261.26953125 106.55078125 C-260.85574219 105.73867188 -260.44195312 104.9265625 -260.015625 104.08984375 C-254.3612485 93.82876814 -246.73007672 88.36608143 -235.95703125 84.30078125 C-224.95917356 82.06392884 -215.47097739 83.82104516 -205.95703125 89.67578125 C-205.17714844 90.19398438 -204.39726562 90.7121875 -203.59375 91.24609375 C-201.01136686 92.69570042 -199.21319343 93.23279388 -196.26953125 93.55078125 C-193.6633467 92.80943657 -193.6633467 92.80943657 -191.05859375 91.48828125 C-190.05957031 91.02035156 -189.06054688 90.55242187 -188.03125 90.0703125 C-186.99613281 89.56886719 -185.96101563 89.06742187 -184.89453125 88.55078125 C-183.89808594 88.08027344 -182.90164063 87.60976563 -181.875 87.125 C-179.78436988 86.13694424 -177.69641509 85.14321257 -175.61083984 84.14453125 C-172.09511509 82.46758757 -168.56701199 80.81835429 -165.03515625 79.17578125 C-159.70998567 76.69675752 -154.39595017 74.19534628 -149.08984375 71.67578125 C-133.61621635 64.33183822 -118.1162929 57.06224888 -102.50442505 50.0163269 C-94.69781827 46.49295334 -86.91195991 42.93222984 -79.1640625 39.28125 C-78.41927643 38.93044373 -77.67449036 38.57963745 -76.90713501 38.21820068 C-73.31630739 36.52518578 -69.7283193 34.82641873 -66.14355469 33.12060547 C-64.86396379 32.51523289 -63.58434307 31.90992336 -62.3046875 31.3046875 C-61.18457275 30.77174072 -60.06445801 30.23879395 -58.91040039 29.68969727 C-56.26953125 28.55078125 -56.26953125 28.55078125 -54.26953125 28.55078125 C-54.24890625 27.45765625 -54.22828125 26.36453125 -54.20703125 25.23828125 C-53.04780163 16.26616155 -46.38948847 8.82346842 -39.6796875 3.20703125 C-35.81443601 0.55084546 -31.71543558 -1.02877639 -27.26953125 -2.44921875 C-18.29810087 -5.43969554 -8.35845591 -4.00438846 0 0 Z " fill="#FDFD53" transform="translate(444.26953125,375.44921875)"/>
<path d="M0 0 C0 0.66 0 1.32 0 2 C0.57596924 2.28270752 1.15193848 2.56541504 1.74536133 2.85668945 C8.58514764 6.32509436 15.80026053 10.27500293 21 16 C22.31452754 20.03809114 22.33264692 23.02784604 22.125 27.25 C21.87580769 34.72576916 24.72970947 41.89363241 28.3125 48.375 C31.7000932 55.65205206 27.7627445 64.31611407 25.625 71.6875 C25.34011719 72.81478516 25.05523438 73.94207031 24.76171875 75.10351562 C22.37276304 83.16744043 22.37276304 83.16744043 18.41723633 85.56640625 C15.49609375 86.60546875 15.49609375 86.60546875 12.68920898 87.30151367 C3.16522252 89.7752427 -5.99238024 98.92622129 -10.859375 107.13671875 C-11.86064257 109.15164581 -12.82745343 111.18436603 -13.74609375 113.23828125 C-16.46981799 119.23726268 -18.44502386 121.65725316 -24.5703125 124.4609375 C-25.23050385 124.76798615 -25.89069519 125.07503479 -26.57089233 125.39138794 C-28.74933231 126.40019953 -30.9368204 127.38751504 -33.125 128.375 C-34.66399461 129.08271764 -36.20239771 129.79172284 -37.74023438 130.50195312 C-41.7143776 132.33253686 -45.69653668 134.14484034 -49.68225098 135.95007324 C-51.88517177 136.94798349 -54.08688798 137.94849147 -56.28808594 138.95019531 C-61.71738933 141.42060102 -67.14755298 143.88904931 -72.58276367 146.34643555 C-81.85053027 150.54064905 -91.07340758 154.82362795 -100.27261353 159.16607666 C-102.41354682 160.17619856 -104.55561292 161.18387947 -106.69799805 162.19091797 C-112.76488728 165.04489891 -118.82627344 167.90757411 -124.85844421 170.83436584 C-126.69394654 171.72274522 -128.53282865 172.60363837 -130.37329102 173.48168945 C-132.60466529 174.54787674 -134.8296045 175.62767858 -137.04663086 176.72338867 C-138.02768799 177.18849854 -139.00874512 177.6536084 -140.01953125 178.1328125 C-141.28953979 178.74987061 -141.28953979 178.74987061 -142.58520508 179.37939453 C-147.10844635 180.54187348 -150.83552711 177.59795279 -154.75 175.5 C-166.04374651 169.87800284 -178.7298903 169.17480434 -190.875 172.6875 C-197.47822666 174.98321639 -203.44141337 177.79031155 -208.75 182.375 C-211 184 -211 184 -213.33837891 183.72412109 C-215.96426206 183.00972287 -218.34263544 182.12606473 -220.8359375 181.0390625 C-221.73570312 180.64976562 -222.63546875 180.26046875 -223.5625 179.859375 C-224.490625 179.45203125 -225.41875 179.0446875 -226.375 178.625 C-227.29539062 178.22539063 -228.21578125 177.82578125 -229.1640625 177.4140625 C-232.45414716 175.98522573 -235.74411282 174.55635393 -239.02368164 173.10351562 C-241.6439291 171.95377498 -244.19938472 170.94190114 -246.94921875 170.140625 C-250.1323418 169.10531536 -252.37730007 168.10318749 -255 166 C-256.5395765 162.35546579 -257.34531497 158.73736228 -258.109375 154.87890625 C-259.51820124 148.74309722 -262.40730762 142.76669858 -266.74609375 138.13671875 C-268.67365587 134.85205682 -267.81803196 132.65084632 -267 129 C-266.24557571 126.222102 -265.39331042 123.48608219 -264.5 120.75 C-264.27441406 120.04359375 -264.04882812 119.3371875 -263.81640625 118.609375 C-262.89587441 115.73339387 -261.95491332 112.86473997 -261 110 C-258.6640625 109.26171875 -258.6640625 109.26171875 -255.625 108.6875 C-249.86132837 107.4082125 -245.39197997 105.27545203 -240.375 102.20703125 C-238 101 -238 101 -234 101 C-231.84375 102.20703125 -231.84375 102.20703125 -229.5 103.8125 C-218.70023522 110.48155183 -205.83888162 111.82063342 -193.47265625 109.2734375 C-178.18261754 104.8844649 -167.99459273 97.03432015 -159.7265625 83.44140625 C-158.30962119 80.61714087 -157.62444504 78.55048268 -156.88085938 75.55786133 C-155.7246791 72.0617205 -154.77037033 70.36201099 -151.54638672 68.53564453 C-150.10533654 67.86904444 -148.64818432 67.23654952 -147.1796875 66.6328125 C-146.38563507 66.27559113 -145.59158264 65.91836975 -144.77346802 65.55032349 C-142.15267484 64.37893684 -139.5148266 63.25275154 -136.875 62.125 C-135.02455907 61.30640315 -133.17561996 60.48440379 -131.328125 59.65917969 C-127.48187803 57.94421977 -123.62954135 56.24415529 -119.77246094 54.55371094 C-111.6435644 50.9762606 -103.60463792 47.20776971 -95.56005859 43.44561768 C-80.74066481 36.52455376 -65.86797751 29.72004779 -50.96484375 22.98144531 C-37.08794386 16.70436611 -23.31280825 10.23650433 -9.61914062 3.56835938 C-8.1737793 2.87129883 -8.1737793 2.87129883 -6.69921875 2.16015625 C-5.84158936 1.74386963 -4.98395996 1.32758301 -4.1003418 0.89868164 C-2 0 -2 0 0 0 Z " fill="#FEFEFE" transform="translate(498,616)"/>
<path d="M0 0 C6.94327978 2.86430182 13.8762134 5.75236904 20.80078125 8.66162109 C23.7059031 9.87696587 26.61781129 11.07431548 29.53125 12.26953125 C31.14634542 12.94930542 32.760962 13.63021891 34.375 14.3125 C35.49624268 14.76302734 35.49624268 14.76302734 36.64013672 15.22265625 C39.69031834 16.53450046 41.66231739 17.42042441 43.36328125 20.33984375 C43.57339844 21.21769531 43.78351563 22.09554688 44 23 C44.29519531 23.99515625 44.59039062 24.9903125 44.89453125 26.015625 C45.19746094 27.08296875 45.50039063 28.1503125 45.8125 29.25 C47.78080762 35.74467796 50.12462936 42.12462936 55 47 C54.93910069 50.41036117 53.85032341 53.71413487 53 57 C52.76095947 58.07266113 52.76095947 58.07266113 52.51708984 59.16699219 C49.23372761 73.58510515 49.23372761 73.58510515 44.1015625 76.8359375 C40.8125 77.75 40.8125 77.75 37.4140625 78.34375 C32.01813006 79.38095441 27.66415183 82.19590071 23 85 C22.45472656 84.60167969 21.90945313 84.20335937 21.34765625 83.79296875 C10.25700188 76.00107311 -1.54963881 73.74507796 -15 75 C-28.24245897 77.6775961 -40.32216562 83.98365094 -48.23828125 95.16015625 C-50.99230148 99.45502087 -53.60337215 103.56640536 -54.97265625 108.515625 C-57.33714749 114.13284319 -63.85582111 115.88027328 -69.0625 118.1875 C-70.2916614 118.75220377 -71.51983731 119.319057 -72.74707031 119.88793945 C-75.2719398 121.05386512 -77.80221775 122.20650374 -80.33837891 123.34765625 C-83.63686088 124.83235529 -86.92029787 126.34749623 -90.19921875 127.875 C-95.52987428 130.35600477 -100.87181315 132.81166883 -106.21630859 135.26269531 C-112.84569275 138.30470474 -119.46707361 141.36411353 -126.08956909 144.42108154 C-128.56941926 145.56569369 -131.04947024 146.70986985 -133.52954102 147.85400391 C-142.32868856 151.91424608 -151.12397466 155.98267915 -159.9140625 160.0625 C-160.81815353 160.48200424 -161.72224457 160.90150848 -162.6537323 161.33372498 C-166.98477687 163.34346557 -171.31528435 165.35434656 -175.64477539 167.36743164 C-178.81132721 168.8392357 -181.98120676 170.30349392 -185.15380859 171.76220703 C-188.6055012 173.34944806 -192.04218121 174.96583917 -195.47509766 176.59326172 C-197.2813729 177.43630666 -199.08784558 178.27892873 -200.89453125 179.12109375 C-201.73199387 179.52425308 -202.56945648 179.92741241 -203.43229675 180.3427887 C-209.25000334 183.02863183 -209.25000334 183.02863183 -212.79467773 182.89331055 C-220.17551041 179.90355446 -227.6760281 174.93606201 -233 169 C-234.37376142 164.91284646 -234.40243359 161.9927885 -234.1640625 157.7109375 C-233.75254152 148.40272474 -238.22864381 139.75123663 -243 132 C-245.12669203 127.74661594 -241.5966912 121.39082087 -240.25 117.0625 C-239.70859375 115.25362305 -239.70859375 115.25362305 -239.15625 113.40820312 C-238.62257812 111.67666992 -238.62257812 111.67666992 -238.078125 109.91015625 C-237.58940918 108.31892944 -237.58940918 108.31892944 -237.09082031 106.69555664 C-235.53304368 102.84609115 -234.0288681 101.47360595 -230.29296875 99.75390625 C-229.26816406 99.36074219 -228.24335938 98.96757813 -227.1875 98.5625 C-222.71280307 96.75220845 -218.84323001 94.96976865 -215 92 C-214.38898438 91.55527344 -213.77796875 91.11054687 -213.1484375 90.65234375 C-206.87359068 85.72210696 -200.08341827 77.66926627 -198.546875 69.62890625 C-198.46179688 68.63697266 -198.46179688 68.63697266 -198.375 67.625 C-196.62294192 63.00593778 -195.19598311 62.76467574 -190.81640625 60.6796875 C-190.1916893 60.37929565 -189.56697235 60.07890381 -188.92332458 59.76940918 C-182.19300011 56.55695426 -175.38270064 53.51571002 -168.5625 50.5 C-155.18211255 44.5643937 -141.92696162 38.39596298 -128.70339966 32.12036133 C-113.99597482 25.14069382 -99.25847937 18.23564167 -84.4375 11.5 C-83.36644012 11.01249268 -83.36644012 11.01249268 -82.27374268 10.51513672 C-80.26543934 9.60181064 -78.25604907 8.69093393 -76.24609375 7.78125 C-75.10841553 7.26626953 -73.9707373 6.75128906 -72.79858398 6.22070312 C-70 5 -70 5 -67 4 C-65.30859375 4.85546875 -65.30859375 4.85546875 -63.4375 6.1875 C-51.88740024 13.83784283 -39.30418634 15.45616046 -25.73828125 13.5390625 C-15.73245101 11.31554467 -7.69451921 6.61773518 0 0 Z " fill="#FEFEFE" transform="translate(464,445)"/>
<path d="M0 0 C10.09432872 3.8836686 18.13005223 9.69725106 22.66015625 19.56640625 C26.50362605 28.89088052 28.26409003 38.70675134 25.7734375 48.68359375 C24.82017951 50.91049934 23.74076311 52.89213887 22.45703125 54.9453125 C22.02132813 55.70199219 21.585625 56.45867188 21.13671875 57.23828125 C16.68838128 64.49417598 10.61473969 70.97887307 2.45703125 73.9453125 C1.59078125 73.69974609 1.59078125 73.69974609 0.70703125 73.44921875 C-2.4656848 72.73866255 -5.10220366 73.34038243 -8.29296875 73.8828125 C-9.4634375 74.07746094 -10.63390625 74.27210938 -11.83984375 74.47265625 C-12.731875 74.62863281 -13.62390625 74.78460937 -14.54296875 74.9453125 C-16.28517168 80.40335223 -18.01200632 85.86592856 -19.72485352 91.33325195 C-20.30953071 93.191997 -20.89836642 95.04943934 -21.49145508 96.90551758 C-22.34385524 99.57560928 -23.18112866 102.250048 -24.015625 104.92578125 C-24.28327164 105.75305222 -24.55091827 106.58032318 -24.82667542 107.43266296 C-26.61676827 113.14733964 -26.61676827 113.14733964 -25.54296875 118.9453125 C-23.38620639 121.5414055 -23.38620639 121.5414055 -20.73046875 124.0703125 C-14.44435086 130.77910212 -11.49683425 137.10951261 -11.04296875 146.3203125 C-11.57361498 158.30264663 -15.95597411 167.87959082 -24.71484375 175.9453125 C-33.74812079 183.42112798 -43.01476929 185.54104348 -54.54296875 184.9453125 C-63.11714896 183.9767477 -70.80461178 179.0794263 -77.54296875 173.9453125 C-78.79279541 174.5326416 -78.79279541 174.5326416 -80.06787109 175.13183594 C-97.29862196 183.22624873 -114.54622839 191.28078813 -131.83984375 199.24023438 C-138.43895225 202.27804729 -145.03505919 205.32237245 -151.63134766 208.36630249 C-154.10170407 209.50607555 -156.57232545 210.64527279 -159.04296875 211.78442383 C-168.01932193 215.92469121 -176.98838062 220.0801598 -185.94921875 224.25390625 C-188.75725222 225.56042549 -191.56537353 226.86675582 -194.37350464 228.17306519 C-196.18194227 229.01523581 -197.98983272 229.85858253 -199.79714966 230.70315552 C-202.31657145 231.88048146 -204.83778872 233.05388124 -207.359375 234.2265625 C-208.1013916 234.57468491 -208.8434082 234.92280731 -209.60791016 235.28147888 C-212.7273247 236.72836961 -215.72357593 238.00371838 -219.00366211 239.06445312 C-219.8416333 239.35513672 -220.67960449 239.64582031 -221.54296875 239.9453125 C-222.47687878 241.76188065 -222.47687878 241.76188065 -222.54296875 243.9453125 C-223.95714416 252.65439277 -229.52494542 260.66569862 -236.54296875 265.9453125 C-247.42353224 272.26490391 -256.62350476 274.77281269 -269.10546875 271.8828125 C-281.09261856 268.25918985 -287.4894392 260.23610869 -293.25 249.66796875 C-294.36118696 247.32809771 -294.93646141 245.52729821 -295.35546875 243.0078125 C-296.1898405 239.92203425 -296.1898405 239.92203425 -298.21899414 238.94921875 C-298.93563232 238.65917969 -299.65227051 238.36914062 -300.390625 238.0703125 C-301.20329834 237.73201416 -302.01597168 237.39371582 -302.85327148 237.04516602 C-304.18467163 236.50073853 -304.18467163 236.50073853 -305.54296875 235.9453125 C-307.43272688 235.12508482 -309.32069173 234.30071568 -311.20703125 233.47265625 C-313.19384528 232.60899501 -315.18082664 231.74571861 -317.16796875 230.8828125 C-318.66457031 230.2321582 -318.66457031 230.2321582 -320.19140625 229.56835938 C-324.21104077 227.82173247 -328.23053702 226.07530286 -332.26171875 224.35546875 C-335.31638868 223.04268798 -338.35443551 221.69805702 -341.39013672 220.34228516 C-344.15020464 219.12142198 -346.92716411 217.94101503 -349.703125 216.75683594 C-351.23545282 216.08095249 -352.73775429 215.33750009 -354.23046875 214.578125 C-356.518058 213.52419995 -358.02030334 212.90716255 -360.54296875 212.9453125 C-363.29068532 214.4060111 -365.58170436 216.15052225 -368.01953125 218.08203125 C-374.38455669 222.78190297 -382.21909391 223.68600428 -389.97265625 223.484375 C-400.74790772 221.85747708 -411.49947164 216.29538584 -418.54296875 207.9453125 C-425.40687414 198.47580311 -427.61799672 189.59371685 -426.54296875 177.9453125 C-424.08256244 166.74825385 -417.57145222 159.09860709 -408.65625 152.2578125 C-406.5268792 150.93531973 -404.97903161 150.43438822 -402.54296875 149.9453125 C-400.01817029 149.16440528 -397.4985614 148.36866443 -394.98046875 147.56640625 C-392.54296875 146.9453125 -392.54296875 146.9453125 -388.54296875 146.9453125 C-388.43726563 146.01460937 -388.3315625 145.08390625 -388.22265625 144.125 C-387.48562249 138.99162452 -386.07155303 134.05474838 -384.66796875 129.0703125 C-384.28318359 127.62785156 -384.28318359 127.62785156 -383.890625 126.15625 C-383.50583984 124.78726563 -383.50583984 124.78726563 -383.11328125 123.390625 C-382.76934326 122.14563232 -382.76934326 122.14563232 -382.41845703 120.87548828 C-382.1295459 120.23853027 -381.84063477 119.60157227 -381.54296875 118.9453125 C-378.54296875 117.9453125 -378.54296875 117.9453125 -376.44921875 118.8359375 C-374.86530573 119.7307455 -373.28195669 120.62655267 -371.69921875 121.5234375 C-367.13958199 123.57753129 -362.38173887 124.72174 -357.54296875 125.9453125 C-357.86890015 126.99658325 -357.86890015 126.99658325 -358.20141602 128.0690918 C-359.18136587 131.2534677 -360.14356083 134.44294261 -361.10546875 137.6328125 C-361.44771484 138.73560547 -361.78996094 139.83839844 -362.14257812 140.97460938 C-362.46162109 142.04130859 -362.78066406 143.10800781 -363.109375 144.20703125 C-363.40787354 145.18631592 -363.70637207 146.16560059 -364.01391602 147.17456055 C-364.58983298 150.19074956 -364.50757758 152.03967322 -363.54296875 154.9453125 C-362.12279832 156.1342924 -360.69684299 157.31771363 -359.23046875 158.44921875 C-351.38093116 165.40841527 -348.72526342 175.18499916 -347.96875 185.26953125 C-347.88665283 186.33647217 -347.80455566 187.40341309 -347.7199707 188.50268555 C-347.63235474 189.71178589 -347.63235474 189.71178589 -347.54296875 190.9453125 C-340.68508962 193.92836725 -333.82661598 196.91005055 -326.96737957 199.88998318 C-323.78240262 201.27371857 -320.59763256 202.65792599 -317.41333008 204.04321289 C-313.75272635 205.63568348 -310.09123196 207.22609978 -306.4296875 208.81640625 C-305.28586105 209.31434189 -304.14203461 209.81227753 -302.96354675 210.32530212 C-301.90267349 210.78570389 -300.84180023 211.24610565 -299.7487793 211.72045898 C-298.34646309 212.33001686 -298.34646309 212.33001686 -296.91581726 212.95188904 C-294.46354369 214.01327122 -294.46354369 214.01327122 -291.54296875 214.9453125 C-291.15367187 214.37683594 -290.764375 213.80835938 -290.36328125 213.22265625 C-283.7914743 204.15235126 -275.76311313 197.86387154 -264.54296875 195.9453125 C-252.3935077 194.51385906 -242.12036151 198.70434015 -232.54296875 205.9453125 C-231.20985641 206.94560709 -229.87655157 207.94564523 -228.54296875 208.9453125 C-227.83841553 208.61547363 -227.1338623 208.28563477 -226.40795898 207.94580078 C-210.8681697 200.67428663 -195.31099993 193.44162913 -179.73046875 186.2578125 C-169.48320632 181.53267462 -159.23655755 176.80626525 -148.99609375 172.06640625 C-148.12383652 171.66286423 -147.25157928 171.2593222 -146.35289001 170.84355164 C-142.00958402 168.83319988 -137.66868833 166.81790573 -133.33227539 164.79272461 C-126.12134654 161.4287224 -118.91151201 158.07825784 -111.61054993 154.91320801 C-108.77928639 153.68440608 -105.95777648 152.43409665 -103.13674927 151.18200684 C-101.84354118 150.61599652 -100.5453044 150.06131381 -99.24191284 149.51916504 C-92.26983577 146.8639715 -92.26983577 146.8639715 -87.20117188 141.74560547 C-86.45337113 139.48195422 -85.97561765 137.28654888 -85.54296875 134.9453125 C-80.68640188 124.0878153 -74.41898371 116.89071184 -63.54296875 111.9453125 C-58.98942836 110.32456083 -55.33918355 109.87152458 -50.54296875 109.9453125 C-50.40761719 109.34589844 -50.27226563 108.74648438 -50.1328125 108.12890625 C-47.18896932 95.73656039 -43.41027972 83.49977337 -39.36328125 71.42578125 C-38.28786324 68.17392204 -37.93979748 66.36328303 -38.54296875 62.9453125 C-39.5712949 61.50847322 -40.66372605 60.11677267 -41.79296875 58.7578125 C-48.30137111 50.85003762 -50.00459688 43.10637671 -49.87890625 32.98828125 C-49.52101431 29.74644614 -48.68200489 26.99337321 -47.54296875 23.9453125 C-48.14109375 23.6771875 -48.73921875 23.4090625 -49.35546875 23.1328125 C-51.52613758 21.95444942 -52.85114087 20.71470269 -54.54296875 18.9453125 C-53.49238281 18.64238281 -52.44179688 18.33945312 -51.359375 18.02734375 C-39.37117819 14.48946827 -30.82547042 10.54723896 -21.609375 1.8359375 C-16.18655167 -3.12558705 -6.75649 -1.72868753 0 0 Z " fill="#FEFE53" transform="translate(580.54296875,601.0546875)"/>
<path d="M0 0 C18.15 0 36.3 0 55 0 C55 15.51 55 31.02 55 47 C69.85 47 84.7 47 100 47 C100 61.19 100 75.38 100 90 C85.15 90 70.3 90 55 90 C55.09097207 106.41419228 55.09097207 106.41419228 55.20898438 122.828125 C55.26315918 129.52992607 55.31427484 136.23164617 55.34643555 142.93359375 C55.37258599 148.34133239 55.41307052 153.74879668 55.46318626 159.15636444 C55.47977591 161.21181557 55.49133909 163.26731407 55.49761391 165.32282257 C55.18223055 184.00164251 55.18223055 184.00164251 62 201 C67.55217633 205.25273081 71.43531044 206.08984516 78.296875 206.31640625 C79.38323242 206.35451416 80.46958984 206.39262207 81.58886719 206.43188477 C82.96204102 206.47498779 84.33521484 206.51809082 85.75 206.5625 C90.1225 206.706875 94.495 206.85125 99 207 C99 221.19 99 235.38 99 250 C33.50704077 250.48513303 33.50704077 250.48513303 14.00390625 232.203125 C-1.40268001 215.26488981 -0.44776235 190.86482055 -0.29296875 169.4921875 C-0.28735874 167.18621093 -0.28309531 164.88023073 -0.28010559 162.57424927 C-0.26876732 156.56725827 -0.23939766 150.56049227 -0.20599365 144.55358887 C-0.17505241 138.3990381 -0.16154935 132.24445023 -0.14648438 126.08984375 C-0.11451519 114.05978215 -0.06184002 102.02994517 0 90 C-11.22 90 -22.44 90 -34 90 C-34.02290595 84.0368177 -34.04283396 78.07378689 -34.05493164 72.1105957 C-34.05997278 70.08031702 -34.06680557 68.05004198 -34.07543945 66.01977539 C-34.08751467 63.10822653 -34.09323034 60.1967255 -34.09765625 57.28515625 C-34.10281754 56.3716188 -34.10797882 55.45808136 -34.11329651 54.51686096 C-34.11349168 52.34424573 -34.06211805 50.17172704 -34 48 C-33 47 -33 47 -29.85717773 46.88647461 C-28.46597304 46.88672559 -27.07476209 46.89228291 -25.68359375 46.90234375 C-25.03588013 46.90335083 -24.3881665 46.90435791 -23.7208252 46.90539551 C-21.29303221 46.91064157 -18.86526439 46.92460275 -16.4375 46.9375 C-8.3009375 46.9684375 -8.3009375 46.9684375 0 47 C0 31.49 0 15.98 0 0 Z " fill="#010101" transform="translate(1005,502)"/>
<path d="M0 0 C8.52905906 6.45771614 14.5976732 14.15239086 16.75 24.8125 C17.69694341 36.04834779 15.53533785 45.48080285 8.703125 54.5234375 C1.31516816 63.18212292 -7.64074347 68.81638767 -19.0859375 70.140625 C-27.39541485 70.5832606 -32.85103601 68.68797369 -40.05859375 64.9296875 C-45.96099575 62.86348558 -51.51610938 66.75144163 -56.92578125 69.27734375 C-57.67074356 69.62204712 -58.41570587 69.96675049 -59.1832428 70.32189941 C-61.64440176 71.46159222 -64.10343748 72.60579171 -66.5625 73.75 C-68.30862024 74.55962012 -70.05487942 75.36894068 -71.80126953 76.17797852 C-75.45409588 77.87082302 -79.10605967 79.56550829 -82.75732422 81.26171875 C-88.00443213 83.69910291 -93.25380352 86.13157458 -98.50390625 88.5625 C-105.31327635 91.71577511 -112.12190559 94.87064119 -118.9296875 98.02734375 C-124.08088512 100.41589334 -129.23211872 102.80436467 -134.38378906 105.19189453 C-135.22932846 105.58380981 -136.07486786 105.9757251 -136.94602966 106.3795166 C-138.65499044 107.17128858 -140.3641889 107.96254775 -142.07362366 108.7532959 C-146.32065679 110.71862435 -150.56332172 112.69239928 -154.79760742 114.68505859 C-162.74948213 118.4160996 -170.71408674 122.04795671 -178.83505249 125.39846802 C-182.63765485 126.97338354 -186.41924259 128.59559171 -190.20019531 130.22167969 C-191.9977947 130.97906994 -193.80527788 131.71349492 -195.62255859 132.42236328 C-206.56126818 136.46006715 -206.56126818 136.46006715 -213.56616211 145.20751953 C-214.68197998 148.31636388 -215.4740414 151.42012351 -216.17236328 154.64526367 C-217.78336564 162.01202539 -222.95580522 166.60710377 -229.02734375 170.671875 C-238.13612533 175.9197327 -246.73318458 178.12131073 -257.25 176.8125 C-268.89092892 173.33260529 -277.59421658 167.52777131 -283.99609375 157.18359375 C-288.78594616 148.12614698 -290.12001461 138.02598827 -287.1484375 128.15234375 C-282.44275297 116.38813243 -275.64615618 107.90786412 -263.875 102.77734375 C-254.42918034 99.52277448 -244.33242266 99.49358573 -235.25 103.8125 C-232.58668029 105.30769703 -229.98878013 106.86489744 -227.4140625 108.5078125 C-225.19818041 109.95144006 -225.19818041 109.95144006 -222.25 110.8125 C-219.40700027 109.7060988 -216.71815401 108.52571903 -213.97265625 107.2109375 C-213.14333084 106.82329727 -212.31400543 106.43565704 -211.45954895 106.03627014 C-208.73951932 104.76238383 -206.02613697 103.47494027 -203.3125 102.1875 C-201.42575267 101.30118547 -199.53854233 100.41585592 -197.65087891 99.53149414 C-193.89181961 97.76900325 -190.13505997 96.00176234 -186.38037109 94.22998047 C-179.97482498 91.20865163 -173.55158155 88.22631668 -167.125 85.25 C-164.90754513 84.22006705 -162.69009739 83.19011876 -160.47265625 82.16015625 C-151.02298674 77.77656326 -141.56270163 73.41595664 -132.10333252 69.05334473 C-116.99761718 62.08641862 -101.90298414 55.09574535 -86.8137207 48.09326172 C-82.95851287 46.30439794 -79.10173635 44.51895862 -75.24389648 42.73577881 C-73.39869529 41.88135373 -71.55569384 41.02218243 -69.71289062 40.16259766 C-68.71966797 39.70288574 -67.72644531 39.24317383 -66.703125 38.76953125 C-65.46030762 38.19102417 -65.46030762 38.19102417 -64.19238281 37.60083008 C-62.25 36.8125 -62.25 36.8125 -60.25 36.8125 C-60.35441406 35.75675781 -60.35441406 35.75675781 -60.4609375 34.6796875 C-61.04393164 24.04698485 -57.69906974 14.59068351 -50.9375 6.3125 C-37.32119378 -7.63226975 -16.61327968 -10.99186783 0 0 Z " fill="#FDFD53" transform="translate(542.25,538.1875)"/>
<path d="M0 0 C0.73605469 0.31710938 1.47210937 0.63421875 2.23046875 0.9609375 C11.12269614 5.27695837 17.83001238 12.84625958 21.359375 22.0546875 C24.5122242 31.62858324 23.39191362 41.60895556 20 51 C17.15654804 56.4090954 13.55104196 60.91573157 9 65 C8.2575 65.680625 7.515 66.36125 6.75 67.0625 C-2.3252995 73.45646101 -11.11086296 74.5682438 -22 74 C-24.50063093 73.53316143 -26.60961355 72.88944612 -29 72 C-29 71.34 -29 70.68 -29 70 C-29.99 69.9071875 -29.99 69.9071875 -31 69.8125 C-35.18657836 68.67863503 -38.42550992 66.40368936 -42 64 C-42.33 64.99 -42.66 65.98 -43 67 C-44.57054206 68.41696507 -46.20746664 69.76106816 -47.875 71.0625 C-51.88329587 74.25774361 -55.73150392 77.51929973 -59.5 81 C-63.9698512 85.11378909 -68.59044893 88.97087297 -73.31640625 92.78515625 C-75.94708557 94.95632827 -78.47942424 97.20241357 -81 99.5 C-84.39598682 102.59555196 -87.86171531 105.55151207 -91.4375 108.4375 C-95.24087503 111.51336588 -98.90082652 114.68753166 -102.5 118 C-106.9698512 122.11378909 -111.59044893 125.97087297 -116.31640625 129.78515625 C-118.94708557 131.95632827 -121.47942424 134.20241357 -124 136.5 C-127.39598682 139.59555196 -130.86171531 142.55151207 -134.4375 145.4375 C-138.24087503 148.51336588 -141.90082652 151.68753166 -145.5 155 C-149.9698512 159.11378909 -154.59044893 162.97087297 -159.31640625 166.78515625 C-161.94708557 168.95632827 -164.47942424 171.20241357 -167 173.5 C-170.39598682 176.59555196 -173.86171531 179.55151207 -177.4375 182.4375 C-181.24087503 185.51336588 -184.90082652 188.68753166 -188.5 192 C-192.96449901 196.10886324 -197.57788973 199.96292111 -202.30078125 203.76953125 C-205.02667983 206.02204657 -207.64175516 208.36272598 -210.25 210.75 C-213.99535801 214.16629301 -217.79814596 217.16831575 -222 220 C-222.75925781 219.15695312 -223.51851563 218.31390625 -224.30078125 217.4453125 C-225.30451796 216.33838791 -226.30843358 215.23162553 -227.3125 214.125 C-227.81201172 213.56941406 -228.31152344 213.01382813 -228.82617188 212.44140625 C-231.1087156 209.93211977 -233.16360168 207.89093222 -236 206 C-235.57396265 201.64833278 -232.72776275 199.52783696 -229.625 196.8125 C-229.08625244 196.32982666 -228.54750488 195.84715332 -227.99243164 195.34985352 C-223.67582702 191.51336297 -219.21334493 187.8668386 -214.71484375 184.24609375 C-211.89326505 181.9116941 -209.19409288 179.48009402 -206.5 177 C-202.0301488 172.88621091 -197.40955107 169.02912703 -192.68359375 165.21484375 C-190.05291443 163.04367173 -187.52057576 160.79758643 -185 158.5 C-181.60401318 155.40444804 -178.13828469 152.44848793 -174.5625 149.5625 C-170.75912497 146.48663412 -167.09917348 143.31246834 -163.5 140 C-159.0301488 135.88621091 -154.40955107 132.02912703 -149.68359375 128.21484375 C-147.05291443 126.04367173 -144.52057576 123.79758643 -142 121.5 C-138.60401318 118.40444804 -135.13828469 115.44848793 -131.5625 112.5625 C-127.75912497 109.48663412 -124.09917348 106.31246834 -120.5 103 C-116.0301488 98.88621091 -111.40955107 95.02912703 -106.68359375 91.21484375 C-104.05291443 89.04367173 -101.52057576 86.79758643 -99 84.5 C-95.60401318 81.40444804 -92.13828469 78.44848793 -88.5625 75.5625 C-84.75912497 72.48663412 -81.09917348 69.31246834 -77.5 66 C-73.83692752 62.62997332 -70.10997759 59.39282329 -66.25 56.25 C-65.35152344 55.50234375 -64.45304688 54.7546875 -63.52734375 53.984375 C-61 52 -61 52 -58.75390625 50.703125 C-56.43837285 49.26814655 -55.32321979 48.40585416 -54 46 C-53.64081136 41.68973638 -53.75754448 37.51743017 -53.9296875 33.203125 C-54.23087074 24.16762788 -50.65789631 16.88954721 -45 10 C-33.33567403 -2.46703228 -15.92082791 -7.37575078 0 0 Z " fill="#E46258" transform="translate(693,163)"/>
<path d="M0 0 C3.68003279 3.56851664 7.04249682 7.31499058 10.3515625 11.23046875 C12.07423737 13.21611689 12.07423737 13.21611689 15 15 C13.74507047 18.76478859 12.16902481 19.69380667 9.0625 22.125 C5.2680907 25.15073542 1.58063538 28.22397726 -2 31.5 C-5.39598682 34.59555196 -8.86171531 37.55151207 -12.4375 40.4375 C-16.24087503 43.51336588 -19.90082652 46.68753166 -23.5 50 C-27.9698512 54.11378909 -32.59044893 57.97087297 -37.31640625 61.78515625 C-39.94708557 63.95632827 -42.47942424 66.20241357 -45 68.5 C-48.39598682 71.59555196 -51.86171531 74.55151207 -55.4375 77.4375 C-59.24087503 80.51336588 -62.90082652 83.68753166 -66.5 87 C-70.9698512 91.11378909 -75.59044893 94.97087297 -80.31640625 98.78515625 C-82.94708557 100.95632827 -85.47942424 103.20241357 -88 105.5 C-91.39598682 108.59555196 -94.86171531 111.55151207 -98.4375 114.4375 C-102.24087503 117.51336588 -105.90082652 120.68753166 -109.5 124 C-113.9698512 128.11378909 -118.59044893 131.97087297 -123.31640625 135.78515625 C-125.94708557 137.95632827 -128.47942424 140.20241357 -131 142.5 C-134.39598682 145.59555196 -137.86171531 148.55151207 -141.4375 151.4375 C-146.25727395 155.33824926 -150.85121613 159.43603976 -155.4140625 163.6328125 C-158.38020517 166.3480428 -161.40006206 168.99464827 -164.44140625 171.625 C-165.66735823 172.7065416 -166.843996 173.843996 -168 175 C-167.84873687 177.81764662 -167.60636754 180.57245856 -167.3125 183.375 C-166.64153843 191.70900535 -167.71274506 197.66197605 -172 205 C-172.38542969 205.68449219 -172.77085937 206.36898438 -173.16796875 207.07421875 C-178.30450347 215.15593379 -186.94071798 219.72667189 -195.84375 222.59375 C-206.92283795 224.6811144 -218.470234 223.05462576 -228 217 C-238.13419596 209.34834197 -242.90674073 201.52710199 -245 189 C-246.07955105 179.00306155 -243.57286217 170.24769743 -237.72265625 162.09765625 C-231.79308902 154.87729888 -223.41107511 148.60473039 -214 147 C-211.34285981 146.90500235 -208.71852718 146.86047296 -206.0625 146.875 C-205.35931641 146.87113281 -204.65613281 146.86726562 -203.93164062 146.86328125 C-200.16187488 146.87034735 -196.66406062 147.096533 -193 148 C-193 148.66 -193 149.32 -193 150 C-192.113125 150.268125 -191.22625 150.53625 -190.3125 150.8125 C-187 152 -187 152 -184.375 153.75 C-183.199375 154.36875 -183.199375 154.36875 -182 155 C-173.47756854 151.88603466 -166.12469053 143.259789 -159.52734375 137.24609375 C-156.93037607 134.93812402 -154.26595987 132.74444137 -151.5625 130.5625 C-147.75912497 127.48663412 -144.09917348 124.31246834 -140.5 121 C-136.0301488 116.88621091 -131.40955107 113.02912703 -126.68359375 109.21484375 C-124.05291443 107.04367173 -121.52057576 104.79758643 -119 102.5 C-115.60401318 99.40444804 -112.13828469 96.44848793 -108.5625 93.5625 C-104.75912497 90.48663412 -101.09917348 87.31246834 -97.5 84 C-93.0301488 79.88621091 -88.40955107 76.02912703 -83.68359375 72.21484375 C-81.05291443 70.04367173 -78.52057576 67.79758643 -76 65.5 C-72.60401318 62.40444804 -69.13828469 59.44848793 -65.5625 56.5625 C-61.75912497 53.48663412 -58.09917348 50.31246834 -54.5 47 C-50.0301488 42.88621091 -45.40955107 39.02912703 -40.68359375 35.21484375 C-38.05291443 33.04367173 -35.52057576 30.79758643 -33 28.5 C-29.60401318 25.40444804 -26.13828469 22.44848793 -22.5625 19.5625 C-17.6955565 15.62620434 -13.06710166 11.47880267 -8.4609375 7.2421875 C-5.70825676 4.73418949 -2.89187448 2.34476309 0 0 Z " fill="#71CF68" transform="translate(277,862)"/>
<path d="M0 0 C9.69375 -0.061875 19.3875 -0.12375 29.375 -0.1875 C32.41638184 -0.21481201 35.45776367 -0.24212402 38.59130859 -0.27026367 C41.0270142 -0.27903316 43.46272423 -0.286676 45.8984375 -0.29296875 C47.14278564 -0.30831665 48.38713379 -0.32366455 49.66918945 -0.33947754 C62.14656746 -0.34319473 71.68647819 2.2790758 80.9765625 10.81640625 C88.68074638 18.93038714 90.63255323 27.25447842 90.54321289 38.16870117 C90.16953466 47.46795085 87.39737219 56.69657035 80.78515625 63.51171875 C71.29644936 71.422435 59.74654749 75.14293432 47.45361328 75.11352539 C46.37829346 75.11340454 45.30297363 75.11328369 44.19506836 75.11315918 C43.08139893 75.10804321 41.96772949 75.10292725 40.8203125 75.09765625 C39.78447021 75.09664917 38.74862793 75.09564209 37.68139648 75.09460449 C33.82925299 75.0893909 29.97712533 75.07542967 26.125 75.0625 C13.193125 75.0315625 13.193125 75.0315625 0 75 C0 50.25 0 25.5 0 0 Z " fill="#FDFDFD" transform="translate(2272,522)"/>
<path d="M0 0 C2.78029784 1.51899199 5.41338866 3.17203165 8 5 C7.40251953 5.92619141 7.40251953 5.92619141 6.79296875 6.87109375 C1.08409518 15.98692805 1.08409518 15.98692805 -1.05419922 26.37866211 C-1.20684138 29.37240842 -1.6268306 31.31793055 -3 34 C-7.40932945 37.19909896 -12.34956064 39.05781923 -17.375 41.0625 C-18.85141505 41.68499628 -20.32591933 42.31204182 -21.79858398 42.94335938 C-24.11692909 43.93688923 -26.43604857 44.92760666 -28.76127625 45.90493774 C-37.66261022 49.65351787 -46.35450135 53.82672968 -55.0625 58 C-64.18653853 62.36108673 -73.32208314 66.65463628 -82.61854553 70.63830566 C-86.59565624 72.3493567 -90.46553732 74.20188758 -94.3125 76.1875 C-102.41709171 80.31906977 -110.75365062 83.91134717 -119.07788086 87.57446289 C-126.29177494 90.76108272 -133.40028771 94.06061455 -140.3984375 97.6953125 C-145.51378035 100.26066462 -148.29510524 101.32671971 -154 100 C-154 99.34 -154 98.68 -154 98 C-154.54527344 97.8659375 -155.09054687 97.731875 -155.65234375 97.59375 C-157.31555185 97.17310502 -158.97406397 96.73368831 -160.62890625 96.28125 C-167.42846554 94.47044859 -173.9761186 93.40096961 -181 93 C-177.66064533 90.77376355 -174.17268938 89.1033297 -170.5546875 87.39453125 C-169.8055307 87.03875504 -169.0563739 86.68297882 -168.28451538 86.31642151 C-165.81601357 85.1456018 -163.34564021 83.97879987 -160.875 82.8125 C-160.02466187 82.41017151 -159.17432373 82.00784302 -158.29821777 81.59332275 C-145.99498209 75.77400688 -133.64561905 70.06672468 -121.24057007 64.46810913 C-113.49872023 60.97347442 -105.77523877 57.44552209 -98.08984375 53.828125 C-97.34919174 53.47954437 -96.60853973 53.13096375 -95.84544373 52.77182007 C-92.18658537 51.04695076 -88.53220231 49.31323996 -84.88354492 47.56689453 C-78.821087 44.67367816 -72.78858488 41.85017941 -66.5234375 39.4140625 C-57.6883711 36.44484609 -57.6883711 36.44484609 -51.3828125 30.1796875 C-50.62300796 27.14355366 -50.62300796 27.14355366 -50.39453125 24.0546875 C-49.32709713 15.78999953 -42.57789784 8.81895651 -36.41015625 3.65625 C-32.54490476 1.00006421 -28.44590433 -0.57955764 -24 -2 C-16.11606973 -4.62797676 -7.52054964 -3.17176393 0 0 Z " fill="#FCFC53" transform="translate(471,533)"/>
<path d="M0 0 C1.73882414 2.60823622 2.58515487 4.40496109 3.53369141 7.32055664 C3.96737534 8.64242477 3.96737534 8.64242477 4.40982056 9.99099731 C4.7205954 10.95431976 5.03137024 11.91764221 5.3515625 12.91015625 C5.84878311 14.43320877 5.84878311 14.43320877 6.35604858 15.98703003 C7.4504312 19.34400063 8.53791358 22.70316021 9.625 26.0625 C10.38127445 28.389481 11.13778776 30.71638438 11.89453125 33.04321289 C14.27134617 40.35945782 16.63670672 47.67937798 19 55 C19.58460999 56.80954163 19.58460999 56.80954163 20.18103027 58.65563965 C22.43976959 65.64827788 24.6937172 72.64243223 26.94061279 79.6388855 C27.64503489 81.83224496 28.35015014 84.02538193 29.05596924 86.21829224 C30.0402366 89.2787148 31.02073228 92.34031829 32 95.40234375 C32.29087494 96.30524139 32.58174988 97.20813904 32.88143921 98.13839722 C33.14743927 98.97307526 33.41343933 99.8077533 33.6875 100.66772461 C33.91824219 101.38802353 34.14898438 102.10832245 34.38671875 102.85044861 C35.0570052 105.19980328 35.52086812 107.60434061 36 110 C12.57 110 -10.86 110 -35 110 C-34.30143577 105.11005038 -33.6281191 101.38034085 -32.11743164 96.82226562 C-31.7293483 95.64152466 -31.34126495 94.46078369 -30.94142151 93.2442627 C-30.5144135 91.96489829 -30.08732263 90.68556154 -29.66015625 89.40625 C-29.21417255 88.05580292 -28.7687449 86.7051721 -28.32383728 85.35437012 C-27.14748213 81.78731261 -25.9642934 78.22256051 -24.77941895 74.6583252 C-22.92127253 69.06426991 -21.0745618 63.46641953 -19.22541428 57.86938477 C-18.53469793 55.77986352 -17.84292453 53.69069437 -17.15103149 51.6015625 C-14.80140494 44.5007645 -12.47301623 37.39373718 -10.18310547 30.2734375 C-9.95540561 29.56551811 -9.72770575 28.85759872 -9.49310589 28.12822723 C-8.4108067 24.76045221 -7.33166582 21.3916995 -6.25660706 18.02160645 C-4.31212838 11.9517097 -2.31271544 5.93996852 0 0 Z " fill="#FBFBFB" transform="translate(1249,532)"/>
<path d="M0 0 C5.21501854 0.42795 8.2936382 3.18839046 12.25 6.3125 C13.67147971 7.40845506 15.09471683 8.50213379 16.51953125 9.59375 C17.25381348 10.15707031 17.9880957 10.72039063 18.74462891 11.30078125 C22.41132749 14.063308 26.17419803 16.68404265 29.9375 19.3125 C31.35833771 20.31993916 32.77892051 21.32773793 34.19921875 22.3359375 C36.4060601 23.89760197 38.6155285 25.39373888 40.89453125 26.8515625 C46.82755454 30.84626806 48.7588295 35.14420163 50.9296875 41.9140625 C51.88598248 45.04191599 51.88598248 45.04191599 53.6953125 47.7109375 C54.12585938 48.46632813 54.55640625 49.22171875 55 50 C54 53 54 53 51.41796875 54.5703125 C50.35191406 55.08335937 49.28585938 55.59640625 48.1875 56.125 C46.60001953 56.90230469 46.60001953 56.90230469 44.98046875 57.6953125 C36.53059188 61.39421011 27.41585173 60.7625603 18.69921875 58.1015625 C9.02694996 54.15426901 0.98195128 46.74192958 -3.375 37.25 C-7.26619575 27.84345724 -7.76110897 17.40419555 -3.85180664 7.94677734 C-2.63749882 5.2606129 -1.35523544 2.61770178 0 0 Z " fill="#FDFD53" transform="translate(197,654)"/>
</svg>
